<?xml version="1.0" standalone="no"?>
<!DOCTYPE svg PUBLIC "-//W3C//DTD SVG 20010904//EN"
 "http://www.w3.org/TR/2001/REC-SVG-20010904/DTD/svg10.dtd">
<svg version="1.0" xmlns="http://www.w3.org/2000/svg"
 width="626.000000pt" height="626.000000pt" viewBox="0 0 626.000000 626.000000"
 preserveAspectRatio="xMidYMid meet">
<metadata>
Created by potrace 1.14, written by Peter Selinger 2001-2017
</metadata>
<g transform="translate(0.000000,626.000000) scale(0.100000,-0.100000)"
fill="#000000" stroke="none">
<path d="M1580 6238 c1 -31 17 -49 70 -83 70 -43 86 -67 105 -163 7 -34 0 -43
-117 -147 -32 -27 -38 -65 -10 -65 10 0 22 4 27 9 19 17 100 21 129 6 16 -8
35 -15 42 -15 8 0 14 -4 14 -10 0 -5 11 -12 25 -16 26 -6 34 -37 14 -50 -8 -5
-6 -10 5 -16 21 -12 21 -37 -1 -45 -24 -9 -33 -23 -33 -55 0 -16 -4 -28 -8
-28 -5 0 -7 -13 -4 -29 2 -19 9 -28 20 -27 10 1 18 -8 20 -21 2 -13 9 -23 15
-24 74 -3 98 -8 125 -28 18 -12 37 -31 42 -42 6 -10 17 -19 25 -19 20 0 19 -6
-11 -57 -14 -25 -23 -47 -20 -50 3 -3 -1 -15 -9 -27 -8 -11 -15 -27 -15 -36 0
-17 -45 -70 -60 -70 -5 0 -18 -10 -29 -21 -16 -17 -27 -21 -56 -16 -47 8 -125
72 -125 103 0 13 -4 24 -10 24 -5 0 -10 9 -10 19 0 11 -6 26 -13 33 -8 7 -19
24 -26 36 -13 25 -36 25 -36 1 0 -8 -5 -17 -12 -21 -15 -10 -137 -39 -188 -44
-61 -7 -149 -26 -162 -36 -7 -6 -20 -5 -33 2 -18 10 -29 8 -59 -7 -20 -10 -39
-22 -42 -26 -4 -5 -25 -11 -49 -13 -23 -2 -46 -7 -52 -10 -5 -3 -53 -8 -106
-10 -53 -3 -119 -9 -147 -14 -42 -8 -429 -5 -570 4 -136 10 -173 77 -180 331
-3 100 -27 267 -46 320 -17 49 -18 -5 -18 -1941 -1 -1759 1 -1993 14 -2004 8
-7 15 -20 15 -29 0 -9 9 -27 19 -40 25 -33 9 -118 -26 -134 -22 -10 -23 -14
-23 -134 0 -80 4 -123 11 -123 5 0 8 4 4 9 -3 6 3 15 13 20 23 12 85 -17 90
-42 3 -15 -32 -60 -41 -51 -2 2 -12 -5 -22 -16 -18 -19 -14 -57 5 -45 5 3 19
-3 31 -13 13 -13 17 -22 10 -27 -25 -15 42 -97 90 -108 37 -9 54 -49 54 -126
-1 -63 -20 -131 -38 -131 -5 0 -5 -19 -2 -43 5 -33 3 -46 -9 -56 -9 -8 -16
-22 -16 -32 0 -11 -4 -19 -10 -19 -5 0 -10 -7 -10 -16 0 -14 3 -14 15 -4 9 7
18 10 22 7 3 -4 -7 -12 -23 -19 -16 -7 -41 -25 -56 -40 -29 -31 -63 -36 -96
-12 l-22 15 0 -315 0 -316 2040 0 c1122 0 2040 3 2040 6 0 3 -42 52 -93 108
-92 98 -482 552 -562 651 -22 28 -42 52 -45 55 -3 3 -14 16 -24 30 -21 27 31
-26 79 -81 46 -53 208 -233 214 -239 13 -11 118 -136 132 -156 8 -12 53 -64
100 -115 48 -52 102 -112 120 -134 82 -96 113 -125 136 -125 l24 0 -6 108
c-11 211 -26 439 -35 537 -5 55 -12 147 -15 205 -9 150 -35 443 -39 448 -3 2
-52 -21 -111 -52 -58 -30 -121 -58 -140 -62 -27 -5 -80 10 -252 69 -266 92
-294 100 -458 133 -148 30 -141 28 -176 38 -55 15 -200 96 -378 210 -101 65
-199 125 -217 134 -19 8 -34 19 -34 24 0 4 -6 8 -14 8 -8 0 -17 4 -21 9 -3 6
6 6 25 1 16 -5 30 -6 30 -2 0 3 9 -4 20 -16 27 -28 30 -28 24 4 -5 25 -3 26
28 20 18 -4 43 -18 56 -31 24 -26 38 -33 26 -13 -5 8 2 9 24 5 18 -4 34 -2 38
4 4 8 9 7 15 -2 6 -10 9 -11 9 -1 0 6 7 12 15 12 8 0 15 -7 15 -15 0 -8 4 -15
8 -15 17 0 21 13 11 32 -14 26 3 47 24 30 10 -9 18 -8 33 3 10 8 30 15 44 15
14 0 31 4 38 9 14 8 83 -4 115 -21 27 -14 32 -3 19 41 -16 51 -15 53 8 39 24
-16 35 -6 21 20 -6 12 -11 35 -11 53 0 32 0 32 21 13 15 -14 34 -19 70 -17 42
1 49 -2 49 -18 0 -11 7 -19 17 -19 9 0 28 -13 42 -29 14 -16 35 -30 46 -32 11
-2 24 -13 30 -24 24 -47 67 -77 111 -78 24 0 50 5 58 12 12 10 16 5 28 -31 12
-35 19 -42 36 -40 12 2 22 -2 22 -8 0 -6 4 -9 8 -6 16 9 87 -22 84 -37 -2 -12
12 -15 65 -15 73 0 118 12 108 28 -4 6 -10 8 -14 6 -4 -3 45 48 110 113 69 70
119 128 121 142 2 13 9 23 16 22 6 -2 12 6 12 16 0 44 38 106 85 139 49 35 51
39 19 45 -10 2 -26 7 -34 10 -21 9 -96 27 -159 38 -39 7 -63 7 -83 -2 -25 -10
-38 -8 -91 14 -53 22 -118 34 -202 39 -11 1 -29 -2 -40 -6 -16 -7 -17 -6 -5 4
12 9 11 10 -7 5 -84 -23 -163 -21 -163 5 0 5 -6 10 -14 10 -22 0 -28 16 -31
88 -2 42 3 86 12 117 17 53 46 98 56 88 4 -3 11 6 16 20 5 14 15 28 21 32 6 4
15 18 20 31 6 14 18 24 29 24 20 0 39 48 23 59 -5 3 -12 20 -16 36 -3 17 -8
35 -9 42 -2 7 -6 16 -10 19 -4 4 -7 15 -7 24 0 10 -6 23 -13 29 -10 7 -12 23
-8 48 4 21 4 61 0 88 -8 63 0 115 17 115 8 0 14 4 14 10 0 5 11 12 25 16 14 3
25 10 25 15 0 5 7 9 16 9 10 0 14 6 10 15 -3 8 -1 15 3 15 5 0 18 3 28 6 15 5
15 4 3 -5 -12 -8 -8 -11 20 -12 19 -1 50 -2 68 -4 17 -1 32 1 32 5 0 4 20 5
45 2 38 -4 49 -1 66 17 11 11 24 21 29 21 6 0 10 5 10 12 0 6 20 30 44 52 46
44 61 71 49 89 -4 7 -8 51 -9 99 -4 141 8 135 -291 159 l-153 13 0 28 c0 17 7
31 16 35 8 3 13 12 10 19 -3 8 1 14 10 14 9 0 14 6 12 12 -3 7 16 44 42 83 25
38 52 90 60 115 30 99 86 157 185 193 163 58 189 72 256 138 36 36 74 69 83
72 20 8 21 37 2 37 -9 0 -12 7 -9 20 3 12 0 20 -6 20 -7 0 -10 4 -7 9 3 4 -9
19 -26 32 -17 13 -37 30 -45 37 -8 8 -22 11 -35 6 -23 -7 -23 -6 -4 14 10 12
22 19 27 17 4 -3 10 -1 14 5 3 5 13 10 21 10 8 0 12 -4 9 -10 -4 -6 1 -7 11
-3 11 4 13 8 6 11 -28 9 -9 20 26 15 33 -6 35 -4 24 9 -15 19 -134 18 -140 -1
-2 -6 -10 -11 -18 -11 -20 0 -17 37 4 50 13 9 5 10 -37 5 -38 -4 -59 -12 -72
-28 l-18 -22 6 23 c6 24 6 24 -75 24 l-53 -1 27 21 c25 20 25 22 8 28 -10 4
-19 13 -19 21 0 10 -13 14 -43 13 -23 0 -42 3 -42 8 0 5 -12 13 -26 18 -14 6
-23 14 -20 18 2 4 -16 8 -41 9 -26 1 -50 8 -54 15 -5 7 -21 12 -39 10 -24 -3
-29 0 -24 12 6 16 -19 22 -75 17 -13 -1 -28 4 -32 11 -5 8 -35 13 -86 15 -55
1 -69 -1 -48 -6 28 -8 28 -9 -15 -11 -25 -1 -68 -4 -97 -5 -66 -4 -221 -42
-252 -62 -13 -8 -42 -15 -64 -15 -38 1 -95 -19 -157 -53 -16 -8 -31 -10 -40
-5 -8 5 -19 5 -25 1 -5 -5 -26 -14 -47 -20 -36 -12 -55 -35 -38 -46 14 -9 12
-26 -2 -24 -7 1 -22 1 -33 -1 l-20 -1 20 -9 20 -8 -20 -7 c-11 -3 -28 -11 -37
-16 -24 -13 -37 -11 -53 5 -12 12 -12 15 1 20 20 8 36 -2 28 -17 -4 -7 -3 -9
1 -4 5 4 9 16 10 26 2 21 -19 22 -68 2 -16 -6 -31 -11 -35 -11 -13 1 43 40 57
40 8 0 36 13 62 30 27 16 49 27 49 25 0 -3 24 8 53 24 32 18 76 32 112 36 33
4 65 11 70 16 6 4 33 9 60 11 28 1 53 6 56 11 3 4 21 16 40 25 28 14 34 23 35
52 3 61 2 60 37 56 42 -5 61 6 62 36 0 20 5 23 37 23 55 1 66 17 31 49 -15 14
-31 26 -35 26 -5 0 -8 7 -8 15 0 8 -9 15 -19 15 -11 0 -32 7 -48 15 -15 9 -39
20 -53 26 -71 28 -126 91 -113 126 15 38 119 141 146 144 7 1 36 2 65 4 63 2
71 8 47 35 -10 11 -16 23 -13 26 6 5 13 -2 46 -45 17 -21 28 -25 95 -27 71 -3
76 -2 83 19 4 12 7 112 6 222 -2 215 -10 261 -44 251 -13 -3 -18 0 -15 8 8 21
-8 37 -39 39 -21 1 -31 -4 -39 -20 -12 -28 -29 -29 -62 -3 -14 11 -35 20 -47
20 -29 1 -118 32 -151 54 -24 16 -34 17 -65 7 -53 -16 -88 -14 -153 9 -31 11
-63 20 -71 20 -14 0 -30 -55 -20 -71 3 -6 1 -16 -6 -24 -8 -9 -8 -20 -2 -32 5
-10 13 -39 16 -65 4 -27 13 -49 19 -49 36 -5 92 5 104 17 8 8 23 14 34 14 24
0 79 -39 79 -55 0 -7 16 -26 35 -44 38 -34 50 -84 19 -79 -11 2 -20 -7 -27
-27 -6 -16 -16 -36 -24 -43 -7 -8 -11 -18 -8 -23 4 -5 -1 -9 -9 -9 -8 0 -24
-10 -35 -21 -16 -17 -31 -21 -70 -20 l-51 1 0 -45 c0 -38 -5 -49 -40 -83 -47
-47 -63 -54 -93 -43 -24 9 -49 63 -61 130 -7 37 9 110 24 112 6 1 15 3 20 4 6
1 15 3 21 4 6 0 9 13 7 29 -2 15 -8 26 -15 25 -7 -2 -13 1 -13 6 0 5 -8 11
-18 13 -19 5 -35 54 -73 223 -27 122 -29 145 -16 166 8 13 8 24 0 42 -13 29
-3 50 20 41 9 -3 14 -11 10 -17 -3 -6 -1 -7 5 -3 15 9 16 53 2 61 -5 3 -10 16
-10 28 0 17 -6 22 -27 24 -15 0 -33 9 -40 19 -9 13 -13 14 -13 4 0 -11 -3 -11
-12 -2 -10 10 -10 15 2 22 12 8 10 10 -7 10 -15 0 -23 -6 -23 -17 -1 -17 -1
-17 -14 0 -11 14 -30 17 -122 17 l-109 0 34 -18 c35 -17 59 -51 28 -39 -21 8
-27 -37 -10 -80 9 -22 9 -34 2 -38 -7 -5 -6 -11 1 -21 16 -19 -7 -69 -38 -83
-30 -14 -32 -14 -32 3 0 7 -6 19 -14 26 -8 6 -13 17 -11 23 3 7 -9 28 -26 47
-28 31 -31 40 -26 80 3 25 3 57 0 73 l-5 27 -139 0 c-138 0 -139 0 -139 -22z
m647 -197 c10 -16 9 -20 -3 -25 -23 -9 -24 -8 -24 19 0 30 11 32 27 6z m43
-11 c0 -5 -4 -10 -10 -10 -5 0 -10 5 -10 10 0 6 5 10 10 10 6 0 10 -4 10 -10z
m-310 -220 c0 -5 -4 -10 -10 -10 -5 0 -10 5 -10 10 0 6 5 10 10 10 6 0 10 -4
10 -10z m358 -202 c19 -19 14 -62 -9 -76 -22 -14 -63 -7 -54 9 4 5 2 9 -3 9
-5 0 -12 -10 -15 -22 -5 -17 -9 -19 -20 -10 -17 15 -10 82 9 82 8 0 14 5 14
10 0 14 64 12 78 -2z m492 -24 c0 -8 -5 -12 -10 -9 -6 4 -8 11 -5 16 9 14 15
11 15 -7z m-55 -44 c3 -6 -1 -7 -9 -4 -18 7 -21 14 -7 14 6 0 13 -4 16 -10z
m-344 -317 c25 -21 50 -47 55 -58 5 -11 29 -26 53 -35 34 -12 46 -22 52 -43 6
-22 4 -27 -12 -27 -10 0 -19 -6 -19 -13 0 -7 -8 -17 -19 -24 -10 -7 -21 -29
-25 -53 -4 -23 -15 -61 -26 -83 -11 -22 -20 -44 -20 -48 0 -12 -43 -55 -62
-62 -21 -7 -72 12 -110 42 -64 51 -86 126 -93 314 -2 67 -2 68 34 97 30 25 44
30 91 30 49 0 60 -4 101 -37z m559 -214 c0 -6 -4 -7 -10 -4 -5 3 -10 11 -10
16 0 6 5 7 10 4 6 -3 10 -11 10 -16z m290 -164 c0 -6 -29 -18 -70 -29 l-25 -7
25 20 c22 18 70 29 70 16z m-105 -45 c3 -5 -3 -10 -15 -10 -12 0 -18 5 -15 10
3 6 10 10 15 10 5 0 12 -4 15 -10z m-150 -10 c-27 -12 -43 -12 -25 0 8 5 22 9
30 9 10 0 8 -3 -5 -9z m310 -10 c-11 -5 -31 -9 -45 -9 -23 0 -23 1 -5 9 11 5
31 9 45 9 23 0 23 -1 5 -9z m75 -10 c0 -5 -7 -10 -16 -10 -8 0 -12 5 -9 10 3
6 10 10 16 10 5 0 9 -4 9 -10z m-483 -16 c-3 -3 -12 -4 -19 -1 -8 3 -5 6 6 6
11 1 17 -2 13 -5z m-237 -17 c-14 -6 -28 -16 -32 -22 -5 -6 -8 -5 -8 3 0 7 10
17 23 22 32 13 46 11 17 -3z m725 3 c-3 -5 -18 -10 -33 -9 -24 0 -25 1 -7 9
28 12 47 12 40 0z m135 -10 c12 -7 11 -9 -5 -8 -11 0 -42 -2 -70 -6 l-50 -6
35 14 c42 17 70 19 90 6z m-275 -10 c-3 -5 -12 -10 -18 -10 -7 0 -6 4 3 10 19
12 23 12 15 0z m402 4 c-3 -3 -12 -4 -19 -1 -8 3 -5 6 6 6 11 1 17 -2 13 -5z
m-166 -49 c27 -11 30 -14 12 -15 -12 0 -24 -4 -27 -9 -6 -9 -55 -12 -69 -4 -7
4 32 42 44 43 4 0 22 -7 40 -15z m-971 -5 c0 -5 -7 -10 -16 -10 -8 0 -12 5 -9
10 3 6 10 10 16 10 5 0 9 -4 9 -10z m835 0 c-3 -5 -11 -10 -16 -10 -6 0 -7 5
-4 10 3 6 11 10 16 10 6 0 7 -4 4 -10z m-3019 -41 c8 -1 19 -3 24 -4 6 -1 18
-3 28 -4 16 -2 16 -2 -1 -12 -9 -5 -21 -8 -26 -5 -4 3 -17 -1 -27 -9 -18 -14
-17 -14 10 -15 18 0 46 -14 74 -37 39 -32 43 -38 26 -44 -10 -4 7 -5 39 -2
l57 6 0 -82 c0 -47 5 -90 12 -101 10 -16 10 -24 -1 -42 -10 -16 -10 -23 -2
-26 6 -2 11 -10 11 -18 0 -8 9 -14 19 -14 11 0 23 -9 26 -20 3 -11 12 -20 20
-20 7 0 16 -6 18 -12 3 -7 3 4 0 25 -7 43 5 47 35 12 22 -26 42 -33 42 -15 0
6 33 10 80 10 66 0 80 3 80 16 0 18 15 34 53 53 20 11 27 22 27 43 0 18 5 28
15 28 8 0 15 5 15 11 0 5 3 8 8 6 15 -9 86 38 92 61 3 12 20 30 39 40 49 24
51 42 6 42 -21 0 -34 4 -30 10 3 6 26 10 51 10 24 0 44 -4 44 -10 0 -16 72
-11 92 7 19 17 34 20 154 27 39 2 88 12 110 22 49 21 192 23 205 2 7 -10 9
-10 9 0 0 7 13 12 30 12 17 0 30 -5 30 -12 0 -10 2 -10 8 -1 5 8 19 9 46 3 48
-11 54 -17 58 -67 1 -7 14 -9 37 -6 l36 6 -28 -26 c-15 -15 -38 -32 -50 -38
-14 -8 -17 -14 -9 -17 9 -3 5 -11 -13 -27 -29 -28 -31 -35 -10 -35 8 0 15 7
15 16 0 14 3 14 15 4 12 -10 19 -10 27 -2 7 7 20 12 31 12 10 0 25 7 33 15 19
19 29 19 48 -1 12 -12 16 -12 16 -2 0 23 16 39 33 32 20 -7 22 -24 3 -24 -14
0 -25 -25 -30 -70 -3 -22 -37 -100 -100 -228 -12 -23 -35 -58 -53 -77 -36 -38
-66 -82 -69 -99 -2 -11 -25 -35 -168 -175 -31 -30 -58 -62 -61 -73 -4 -10 -10
-16 -15 -13 -19 12 51 122 97 154 49 35 52 51 5 30 -18 -7 -28 -18 -25 -26 3
-7 0 -13 -6 -13 -6 0 -11 4 -11 10 0 19 -26 -1 -43 -33 -9 -17 -32 -76 -52
-131 -36 -101 -45 -170 -22 -180 8 -3 7 -8 -6 -16 -9 -6 -15 -15 -12 -20 3 -4
0 -32 -6 -61 -5 -30 -12 -72 -14 -94 -4 -53 -24 -181 -31 -212 -5 -19 -9 -21
-15 -11 -6 10 -9 8 -9 -8 0 -11 -4 -24 -9 -30 -14 -15 -23 -71 -12 -78 5 -4
13 3 16 15 6 19 8 20 26 3 23 -21 27 -69 5 -61 -9 4 -17 -2 -21 -13 -5 -15
-12 -18 -34 -14 -21 4 -30 1 -34 -11 -4 -9 -11 -14 -16 -10 -6 3 -7 13 -4 21
4 11 0 15 -13 14 -33 -4 -44 0 -44 14 0 8 -9 18 -21 21 -11 4 -41 21 -66 37
-26 18 -48 27 -52 21 -7 -11 -81 -5 -81 7 0 7 -43 22 -75 26 -5 0 -23 4 -38 9
-18 5 -33 3 -40 -4 -6 -6 -20 -11 -32 -11 -14 0 -26 -11 -37 -37 -16 -35 -16
-37 3 -62 13 -16 18 -33 15 -47 -9 -33 3 -54 30 -54 17 0 24 -6 24 -19 0 -29
11 -51 25 -51 17 0 65 -57 65 -76 0 -8 7 -14 16 -14 19 0 48 -66 63 -140 27
-142 32 -184 37 -315 6 -156 17 -213 46 -245 14 -15 17 -24 9 -33 -15 -19 -9
-57 9 -58 13 0 13 -1 0 -6 -8 -3 -26 -14 -39 -24 -30 -24 -72 -24 -97 -1 -31
29 -55 34 -82 16 -24 -16 -26 -15 -41 4 -17 22 -20 22 -181 6 -41 -4 -77 -10
-80 -14 -3 -3 -31 -11 -62 -16 -57 -10 -58 -10 -85 20 -23 26 -27 41 -35 133
-4 57 -12 112 -17 122 -6 10 -13 74 -16 142 -3 68 -12 151 -20 184 -8 33 -15
76 -14 95 0 61 -21 264 -30 285 -21 49 -41 138 -51 230 -6 55 -17 138 -25 185
-8 47 -19 170 -25 274 -6 105 -14 195 -18 200 -3 6 -7 56 -8 111 -1 55 -7 142
-14 193 -8 58 -9 97 -3 105 11 14 4 100 -26 292 -26 162 -19 263 14 218 12
-17 14 -16 21 12 6 21 9 25 12 13 2 -10 10 -19 18 -19z m2137 24 c-7 -2 -19
-2 -25 0 -7 3 -2 5 12 5 14 0 19 -2 13 -5z m1137 -22 c0 -5 -7 -11 -14 -14
-10 -4 -13 -1 -9 9 6 15 23 19 23 5z m125 -1 c3 -5 -1 -10 -9 -10 -9 0 -16 5
-16 10 0 6 4 10 9 10 6 0 13 -4 16 -10z m-194 -32 c-10 -18 -16 -38 -14 -45 8
-24 -15 -48 -46 -48 -27 0 -31 3 -31 28 0 21 5 27 21 27 31 0 59 19 59 40 0
15 6 22 27 29 2 1 -6 -14 -16 -31z m339 28 c0 -2 -11 -6 -25 -8 -13 -3 -22 -1
-19 3 5 9 44 13 44 5z m-650 -19 c0 -2 -10 -12 -22 -23 l-23 -19 19 23 c18 21
26 27 26 19z m480 -12 c-14 -16 -40 -20 -40 -6 0 10 17 19 39 20 11 1 11 -2 1
-14z m-1493 -11 c-3 -3 -12 -4 -19 -1 -8 3 -5 6 6 6 11 1 17 -2 13 -5z m53
-11 c0 -10 -32 -43 -42 -43 -5 0 -1 11 8 25 15 23 34 33 34 18z m1535 -13
c-10 -11 -21 -17 -24 -14 -3 3 3 12 13 20 28 20 32 17 11 -6z m-1678 -37 c-9
-9 -20 -14 -24 -10 -3 4 2 14 13 21 25 19 33 10 11 -11z m1308 17 c-3 -5 -11
-10 -16 -10 -6 0 -7 5 -4 10 3 6 11 10 16 10 6 0 7 -4 4 -10z m410 -9 c-3 -6
-11 -11 -17 -11 -6 0 -6 6 2 15 14 17 26 13 15 -4z m-255 -21 c-13 -8 -13 -10
-1 -10 8 0 12 -2 9 -5 -3 -3 -13 -2 -23 1 -17 7 -17 8 0 21 10 7 21 10 24 7 3
-3 -1 -9 -9 -14z m-3009 -54 c3 -31 1 -50 -7 -57 -9 -8 -13 5 -16 51 -4 72 14
77 23 6z m1503 30 c-3 -9 -10 -16 -15 -16 -6 0 -5 9 1 21 13 24 24 20 14 -5z
m-54 -41 c0 -14 -4 -25 -10 -25 -11 0 -14 33 -3 43 11 11 13 8 13 -18z m1940
-55 c0 -5 -4 -10 -10 -10 -5 0 -10 5 -10 10 0 6 5 10 10 10 6 0 10 -4 10 -10z
m-2157 -721 c-33 -62 -62 -99 -77 -99 -6 0 -4 5 4 10 8 5 11 10 7 10 -5 0 -21
-9 -35 -21 -16 -12 -28 -16 -30 -10 -2 6 -8 11 -13 11 -6 0 -7 -4 -4 -10 3 -5
1 -18 -4 -27 -6 -10 -11 -12 -11 -5 0 6 -4 12 -9 12 -4 0 -6 -11 -3 -25 2 -15
0 -25 -7 -25 -6 0 -11 12 -11 26 0 19 14 40 49 73 62 59 164 141 169 136 2 -2
-9 -27 -25 -56z m1661 -124 c22 -8 43 -12 48 -9 4 3 14 2 21 -3 20 -13 -94
-30 -120 -18 -19 9 -20 11 -5 17 14 5 13 7 -5 7 -13 1 -23 6 -23 11 0 14 38
12 84 -5z m69 -212 c-7 -2 -21 -2 -30 0 -10 3 -4 5 12 5 17 0 24 -2 18 -5z
m-2023 -346 c0 -5 -7 -4 -15 3 -8 7 -15 20 -15 29 1 13 3 13 15 -3 8 -11 15
-24 15 -29z m290 -827 c0 -19 77 -136 124 -187 49 -55 50 -55 96 -49 38 5 50
3 69 -15 14 -13 35 -21 59 -21 43 0 71 -16 50 -29 -11 -7 -11 -9 0 -9 7 0 20
-7 28 -15 20 -19 11 -19 -28 1 -44 23 -213 64 -262 64 -22 0 -63 -7 -90 -15
-96 -29 -93 -33 -95 110 -2 108 0 124 13 119 17 -7 33 37 20 57 -4 8 -3 9 4 5
7 -4 12 -11 12 -16z m466 -113 c2 -2 -4 -15 -14 -27 l-19 -24 -12 23 c-7 12
-15 20 -18 17 -3 -3 -15 0 -27 6 -20 11 -20 11 -1 18 18 6 81 -2 91 -13z
m-176 -91 c0 -23 -11 -25 -31 -5 -25 25 -24 27 6 21 14 -2 25 -10 25 -16z
m406 -153 c-7 -7 -26 7 -26 19 0 6 6 6 15 -2 9 -7 13 -15 11 -17z m774 11 c0
-8 -4 -12 -10 -9 -5 3 -10 10 -10 16 0 5 5 9 10 9 6 0 10 -7 10 -16z m-1694
-79 c-41 -39 -67 -56 -94 -60 -20 -3 -52 -13 -70 -21 -38 -17 -45 -17 -37 -4
3 5 37 19 75 30 50 15 76 29 98 54 29 33 59 55 76 56 4 0 -17 -25 -48 -55z
m-59 -120 c21 -21 33 -41 29 -50 -3 -8 -1 -15 4 -15 6 0 9 -3 8 -7 -1 -5 4
-21 11 -38 25 -60 49 -125 46 -125 -2 0 -24 42 -50 93 l-47 94 -55 1 c-52 1
-55 0 -37 -14 17 -14 11 -14 -67 -9 -87 7 -118 -3 -82 -24 16 -9 16 -10 -5
-11 -13 0 -32 -5 -43 -10 -27 -15 -23 1 10 37 16 17 46 36 67 42 22 6 59 24
84 40 60 39 84 39 127 -4z m164 -315 c21 -73 23 -83 10 -76 -4 3 -11 23 -13
44 -3 21 -22 75 -42 121 -20 45 -36 85 -36 89 2 18 65 -121 81 -178z m19 110
c17 -33 30 -65 30 -72 -1 -7 -14 15 -29 48 -16 34 -34 64 -40 68 -6 4 -11 12
-11 17 0 22 22 -5 50 -61z m-581 46 c-10 -9 -69 -36 -69 -32 0 7 52 35 64 36
5 0 7 -2 5 -4z m1842 -113 c13 -16 12 -17 -3 -4 -17 13 -22 21 -14 21 2 0 10
-8 17 -17z m-2404 -60 c-13 -14 -16 -13 -26 6 -10 17 -9 21 4 21 8 0 15 6 15
13 0 6 5 4 11 -7 9 -14 8 -22 -4 -33z m453 42 c0 -2 -10 -10 -22 -16 -21 -11
-22 -11 -9 4 13 16 31 23 31 12z m763 -145 c5 -22 4 -31 -2 -25 -8 9 -43 150
-40 165 1 8 35 -102 42 -140z m1275 55 c25 -33 39 -54 31 -47 -9 6 -38 40 -65
75 -26 34 -40 55 -30 47 10 -8 39 -41 64 -75z m-2108 44 c-14 -11 -41 -34 -60
-50 -53 -44 -254 -189 -262 -189 -5 0 -8 2 -8 4 0 6 203 160 275 208 74 50 97
61 55 27z m-350 -105 c0 -44 -6 -52 -40 -59 -13 -3 -20 2 -20 12 0 10 6 13 18
9 10 -4 6 3 -11 19 -30 29 -30 53 1 88 16 18 17 18 34 -3 11 -14 18 -39 18
-66z m1120 26 c0 -5 -4 -10 -10 -10 -5 0 -10 5 -10 10 0 6 5 10 10 10 6 0 10
-4 10 -10z m-3 -52 c-3 -8 -6 -5 -6 6 -1 11 2 17 5 13 3 -3 4 -12 1 -19z m88
-203 c3 -71 1 -150 -4 -175 l-9 -45 -1 43 c-1 23 -5 42 -11 42 -5 0 -10 -4
-10 -10 0 -5 -4 -10 -10 -10 -5 0 -10 8 -10 18 0 12 -2 14 -8 4 -9 -13 -42 -6
-42 9 0 4 7 6 15 3 9 -4 15 0 15 10 0 9 -6 16 -12 16 -10 0 -10 2 0 9 8 4 13
14 12 22 -1 8 -2 47 -1 88 l1 74 19 -22 c11 -13 18 -28 15 -35 -13 -33 -10
-113 4 -138 16 -28 32 -37 32 -19 0 5 -7 16 -15 25 -19 18 -19 26 0 26 9 0 12
6 9 15 -4 8 -10 12 -15 9 -5 -3 -9 2 -9 10 0 10 6 13 17 9 13 -5 15 -3 9 13
-4 10 -9 62 -10 114 -2 69 -1 85 6 60 4 -19 11 -93 13 -165z m1416 85 c81 -98
121 -150 115 -150 -5 0 -168 198 -190 230 -19 28 18 -11 75 -80z m-1461 25 c0
-3 -9 0 -20 7 -11 7 -20 18 -20 25 0 8 8 5 20 -7 11 -11 20 -22 20 -25z
m-1332 27 c7 -5 18 -31 25 -58 9 -34 17 -48 27 -46 12 3 13 1 3 -9 -7 -7 -13
-19 -13 -27 0 -16 44 8 85 46 43 40 37 19 -10 -35 -24 -28 -41 -53 -38 -57 3
-3 0 -6 -9 -6 -17 0 -122 -79 -154 -116 -12 -13 -24 -24 -28 -24 -14 0 -4 18
26 49 28 28 30 34 16 42 -10 5 -19 29 -23 59 -4 28 -10 48 -13 46 -14 -9 1
110 15 127 17 18 68 23 91 9z m102 -292 c-8 -5 -19 -10 -25 -10 -5 0 -3 5 5
10 8 5 20 10 25 10 6 0 3 -5 -5 -10z m1201 -27 c-8 -15 -10 -15 -11 -2 0 17
10 32 18 25 2 -3 -1 -13 -7 -23z m-1442 -47 c-19 -18 -64 -32 -55 -17 4 6 13
11 20 11 8 0 19 7 26 15 7 9 15 13 18 10 3 -3 -1 -12 -9 -19z"/>
<path d="M1980 4351 c-15 -4 -20 -10 -13 -14 6 -4 9 -17 6 -28 -4 -16 -2 -20
8 -17 7 2 16 19 20 36 4 18 6 32 5 31 0 -1 -12 -4 -26 -8z"/>
<path d="M1920 4330 c0 -5 7 -10 15 -10 8 0 15 5 15 10 0 6 -7 10 -15 10 -8 0
-15 -4 -15 -10z"/>
<path d="M960 4249 c0 -5 5 -7 10 -4 6 3 10 8 10 11 0 2 -4 4 -10 4 -5 0 -10
-5 -10 -11z"/>
<path d="M680 4171 c0 -6 5 -13 10 -16 6 -3 10 1 10 9 0 9 -4 16 -10 16 -5 0
-10 -4 -10 -9z"/>
<path d="M3480 4540 c0 -5 5 -10 10 -10 6 0 10 5 10 10 0 6 -4 10 -10 10 -5 0
-10 -4 -10 -10z"/>
<path d="M1468 1583 c7 -3 16 -2 19 1 4 3 -2 6 -13 5 -11 0 -14 -3 -6 -6z"/>
<path d="M3435 6188 c0 -40 -3 -95 -5 -123 -5 -56 9 -406 17 -418 5 -9 13
-265 17 -543 2 -192 13 -250 46 -241 23 6 52 -17 70 -56 13 -26 21 -31 44 -29
15 2 25 -1 22 -6 -3 -5 13 -12 35 -16 23 -4 48 -13 56 -21 8 -8 25 -15 39 -15
13 0 24 -3 24 -7 0 -5 11 -13 25 -19 18 -9 30 -9 49 2 22 11 26 11 26 -1 0
-15 22 -25 55 -25 13 0 27 -5 31 -12 13 -21 22 24 17 84 -4 38 -2 63 6 72 7 8
23 44 35 79 26 74 24 132 -5 148 -13 6 -19 21 -19 43 0 39 8 50 26 35 22 -18
27 12 9 54 -8 20 -15 47 -15 59 -1 13 -10 34 -20 47 -17 19 -23 21 -35 11 -10
-8 -19 -9 -24 -4 -10 11 -41 141 -41 170 0 12 -7 27 -16 34 -18 16 -15 101 4
108 7 2 12 12 12 23 0 11 14 32 32 48 28 25 31 34 30 79 -1 52 -24 111 -49
125 -12 7 -11 11 4 22 16 12 17 15 1 32 -15 17 -14 21 8 67 13 28 24 55 24 63
0 7 9 17 19 23 17 8 25 3 56 -35 39 -47 41 -75 5 -75 -11 0 -20 -1 -20 -2 -11
-71 -11 -76 7 -82 35 -12 63 -33 55 -40 -4 -4 11 -7 33 -5 52 3 117 -16 139
-40 12 -13 31 -19 72 -19 54 0 55 0 52 26 -2 21 3 28 25 36 47 17 61 0 65 -81
2 -44 0 -73 -7 -77 -6 -4 -11 -16 -11 -27 0 -10 -7 -19 -15 -19 -8 0 -22 -11
-31 -25 -28 -44 -49 -49 -78 -20 -15 14 -26 29 -26 33 0 4 -16 16 -36 27 -32
17 -38 18 -61 5 -15 -8 -35 -28 -47 -43 l-20 -28 37 -70 c30 -55 36 -73 27
-84 -9 -11 -7 -22 6 -50 9 -20 14 -38 11 -42 -4 -3 0 -15 8 -27 8 -11 15 -32
15 -47 0 -16 7 -29 17 -33 11 -5 14 -10 7 -14 -12 -8 -28 -76 -25 -107 2 -16
0 -17 -8 -5 -8 12 -11 12 -17 -4 -5 -12 -2 -22 9 -27 8 -5 13 -17 10 -27 -2
-10 1 -31 7 -47 10 -27 12 -28 22 -12 6 11 7 38 3 63 -8 56 5 57 56 4 43 -44
51 -89 25 -126 -9 -12 -12 -30 -9 -49 7 -33 19 -46 40 -38 7 3 13 -2 13 -11 0
-9 6 -16 14 -16 8 0 17 -11 20 -25 4 -14 10 -25 15 -25 5 0 27 21 48 48 35 44
61 57 79 39 4 -4 20 -7 36 -7 31 0 37 -14 11 -25 -16 -6 -15 -9 9 -30 17 -15
26 -30 22 -39 -3 -9 3 -30 14 -48 11 -18 23 -58 26 -88 4 -30 12 -58 19 -62 8
-5 6 -12 -6 -26 -9 -10 -14 -22 -10 -25 3 -4 2 -7 -4 -7 -6 0 -14 8 -18 18 -6
16 -7 16 -20 -2 -11 -14 -22 -17 -44 -13 -25 5 -30 3 -33 -16 -2 -12 -9 -21
-16 -19 -7 1 -12 -9 -12 -24 0 -18 -4 -25 -14 -21 -9 4 -16 -4 -20 -24 -3 -17
-11 -29 -18 -28 -25 3 -38 -1 -38 -11 0 -6 -9 -23 -20 -38 -17 -23 -18 -33 -9
-67 29 -112 40 -232 22 -265 -17 -32 -16 -60 1 -107 9 -24 17 -101 21 -213 10
-293 15 -381 26 -480 17 -150 25 -298 17 -328 -5 -15 -9 -101 -11 -192 -2 -97
-9 -184 -17 -211 -11 -38 -11 -55 1 -105 9 -38 19 -59 29 -60 8 -1 17 -2 20
-3 3 -1 15 -4 28 -7 13 -2 30 -11 38 -19 20 -20 54 -96 54 -122 0 -13 6 -23
14 -23 11 0 12 -5 3 -25 -7 -14 -18 -23 -24 -20 -11 4 -15 -14 -12 -52 1 -13
-42 -21 -114 -22 -38 -1 -78 -7 -90 -13 -12 -7 -33 -13 -47 -13 -19 0 -25 -5
-24 -20 2 -29 15 -99 20 -107 2 -3 -2 -12 -9 -20 -8 -7 -12 -19 -9 -26 3 -9
-7 -8 -32 5 -35 16 -35 17 -19 37 10 12 11 15 3 8 -22 -19 -39 -15 -35 10 3
12 9 26 13 30 5 5 6 28 1 53 -4 24 -11 82 -15 129 -5 72 -4 92 12 123 16 33
25 113 26 218 1 23 -10 167 -12 175 -1 3 -8 -31 -16 -75 -20 -113 -43 -171
-111 -278 -24 -37 -46 -67 -50 -67 -5 0 -26 -28 -48 -63 -21 -34 -56 -82 -77
-106 -40 -46 -48 -71 -24 -71 8 0 16 -4 18 -8 2 -4 32 -24 68 -44 36 -20 82
-53 102 -74 40 -40 84 -139 114 -258 16 -65 16 -68 -3 -94 -17 -24 -153 -123
-181 -133 -11 -4 5 -279 29 -519 7 -63 11 -128 11 -145 -1 -16 5 -68 13 -115
8 -48 12 -121 10 -169 -3 -53 1 -107 11 -148 9 -39 13 -90 10 -129 -3 -36 -2
-72 1 -80 4 -12 113 -14 750 -14 l745 0 -7 33 c-4 17 -18 57 -31 87 -22 51
-33 119 -64 385 -13 110 -14 105 23 105 49 0 75 -10 80 -31 5 -19 37 -27 37
-9 0 14 27 12 34 -2 5 -10 7 -10 12 0 11 24 24 12 24 -24 0 -19 -7 -42 -15
-50 -9 -9 -13 -25 -9 -38 4 -17 -1 -29 -20 -44 -34 -26 -33 -34 10 -68 21 -16
46 -38 56 -49 16 -16 31 -20 81 -18 80 2 169 14 182 23 6 4 23 10 38 14 25 6
29 3 43 -30 9 -20 20 -62 25 -92 4 -31 16 -86 25 -124 13 -54 21 -68 35 -68
18 0 19 23 19 657 0 361 -3 654 -6 650 -3 -3 -19 10 -36 28 -33 39 -46 106
-23 125 16 13 30 65 26 95 -1 11 -9 33 -17 49 -22 45 -18 85 12 112 14 13 29
24 35 24 5 0 9 32 9 70 0 40 -4 70 -10 70 -5 0 -10 -5 -10 -11 0 -8 -5 -8 -15
1 -8 7 -15 19 -15 27 0 7 7 16 15 19 17 7 21 50 5 56 -12 4 10 58 23 58 4 0 7
70 7 156 0 131 -2 155 -14 145 -10 -9 -17 -3 -30 32 -9 23 -16 62 -16 87 0 29
-8 55 -22 76 -25 37 -56 50 -65 28 -3 -8 -11 -14 -18 -14 -14 0 -30 101 -23
155 3 28 7 30 46 33 24 2 42 -1 42 -7 0 -6 6 -8 14 -5 13 5 27 -50 43 -174 3
-23 9 -42 14 -42 5 0 9 -11 9 -24 0 -14 5 -28 10 -31 7 -4 10 150 10 454 0
358 -3 460 -12 464 -10 4 -10 6 0 6 9 1 12 62 12 272 0 222 -2 269 -13 261
-16 -14 -57 -4 -57 14 0 7 -12 14 -27 16 -28 3 -32 19 -16 58 4 8 7 32 8 53 1
34 -1 38 -19 32 -12 -4 -33 -8 -47 -9 -24 -2 -27 2 -38 46 -15 68 -14 119 5
156 19 39 27 40 42 7 8 -17 20 -25 37 -25 14 0 33 -9 42 -20 22 -26 35 -25 61
3 l22 23 0 854 c0 469 -3 850 -7 846 -5 -4 -9 -12 -9 -17 -1 -5 -2 -12 -3 -16
0 -3 -11 2 -22 13 -22 19 -22 19 -8 -4 12 -21 12 -25 -4 -37 -15 -11 -18 -24
-15 -77 3 -58 1 -63 -19 -66 -12 -2 -27 -10 -33 -18 -33 -39 -59 -3 -67 97 -5
56 -3 69 8 67 7 -2 20 12 28 30 17 36 30 37 48 1 l13 -24 0 27 c0 15 4 30 10
33 5 3 7 19 3 35 -5 28 -4 30 26 30 17 0 31 -4 31 -10 0 -5 5 -10 10 -10 16 0
12 211 -4 233 -12 15 -34 17 -195 17 -99 0 -181 -2 -181 -4 0 -3 4 -16 10 -30
11 -31 13 -88 4 -140 -3 -23 -1 -55 7 -78 10 -31 10 -43 -1 -64 -11 -19 -11
-34 -3 -65 6 -22 6 -42 2 -45 -5 -3 -9 -13 -9 -23 0 -9 -6 -26 -14 -36 -11
-16 -17 -17 -29 -7 -8 7 -17 25 -20 41 -4 20 -15 32 -36 39 -16 6 -32 8 -34 5
-3 -3 -17 17 -31 45 -14 27 -36 62 -50 79 -13 16 -28 41 -31 56 -4 15 -12 27
-17 27 -6 0 -7 -11 -4 -24 6 -23 -8 -47 -16 -28 -5 13 -80 56 -100 57 -14 1
-17 -3 -12 -19 10 -35 10 -40 -8 -43 -23 -6 -38 48 -35 132 2 60 0 70 -14 67
-25 -4 -44 24 -29 43 11 13 7 15 -24 15 -35 0 -35 -1 -29 -32 5 -28 4 -31 -13
-24 -33 13 -36 12 -55 -21 -10 -18 -14 -33 -9 -33 6 0 5 -9 -2 -21 -10 -17
-10 -23 0 -26 6 -3 12 -11 12 -18 0 -11 -10 -9 -40 7 -39 21 -42 27 -42 88 0
3 3 22 6 43 l7 37 -365 0 c-248 0 -367 -3 -371 -11 -11 -16 1 -22 23 -10 13 7
22 7 29 0 6 -6 25 -18 44 -27 33 -17 46 -46 22 -48 -7 -1 -17 -2 -23 -3 -5 0
-10 -7 -10 -15 0 -9 -8 -12 -24 -9 -20 4 -25 0 -28 -18 -5 -37 -30 -28 -56 19
l-24 43 -29 -41 -30 -41 -44 32 -45 32 -24 -22 c-21 -19 -27 -21 -47 -11 -19
11 -24 9 -39 -10 -17 -23 -90 -38 -90 -19 0 5 -6 8 -12 7 -19 -4 -22 50 -4 77
9 13 16 36 16 50 l0 25 -322 0 -323 0 0 -72z m1712 -135 c-3 -10 -5 -2 -5 17
0 19 2 27 5 18 2 -10 2 -26 0 -35z m37 -58 c14 -21 14 -25 2 -25 -13 0 -36 28
-36 44 0 15 19 4 34 -19z m386 -25 c0 -5 -5 -10 -11 -10 -5 0 -7 5 -4 10 3 6
8 10 11 10 2 0 4 -4 4 -10z m-214 -14 c8 -8 14 -21 14 -30 0 -8 6 -19 14 -23
17 -10 22 -32 11 -56 -9 -22 17 -63 45 -72 30 -9 32 -3 15 33 -9 17 -17 50
-17 74 -1 28 -9 51 -21 66 -11 12 -16 22 -10 22 16 0 63 -40 63 -54 0 -18 48
-57 53 -43 2 8 14 6 40 -8 36 -19 87 -95 87 -129 0 -17 -47 -52 -57 -42 -3 3
-1 6 6 6 7 0 9 5 6 10 -5 8 -12 7 -23 -2 -12 -10 -16 -10 -19 0 -3 6 -9 12
-15 12 -5 0 -8 -6 -5 -12 2 -7 -2 -20 -10 -29 -7 -9 -14 -34 -15 -55 0 -21 -4
-43 -8 -49 -3 -5 -7 -20 -8 -33 -1 -32 -24 -51 -67 -55 -21 -3 -40 -9 -44 -15
-3 -6 -24 -24 -45 -42 -31 -24 -46 -29 -68 -25 -21 5 -28 3 -28 -9 0 -21 -16
-20 -49 3 -18 13 -31 36 -40 72 -8 28 -24 68 -37 87 -25 37 -31 62 -14 62 7 0
7 7 -1 21 -6 12 -8 30 -6 41 3 11 0 21 -9 25 -27 10 -14 26 17 19 51 -10 107
3 116 28 7 20 8 27 12 72 1 15 11 23 38 30 21 5 39 16 40 24 6 52 15 90 19 90
3 0 12 -6 20 -14z m74 -36 c0 -5 -5 -10 -11 -10 -5 0 -7 5 -4 10 3 6 8 10 11
10 2 0 4 -4 4 -10z m4 -86 c9 -24 7 -28 -9 -14 -17 14 -20 30 -6 30 5 0 12 -7
15 -16z m-570 -229 c3 -9 0 -15 -9 -15 -8 0 -15 7 -15 15 0 8 4 15 9 15 5 0
11 -7 15 -15z m1010 -24 c27 -23 46 -74 46 -122 0 -23 -3 -39 -7 -36 -3 4 -13
1 -22 -6 -26 -23 -48 -26 -68 -12 -28 22 -33 18 -33 -30 0 -43 -2 -45 -24 -41
-20 4 -27 -1 -35 -26 -10 -29 -13 -30 -52 -25 -29 4 -42 1 -46 -9 -8 -22 -22
-16 -21 9 1 36 -1 49 -10 43 -4 -2 -8 4 -8 14 0 10 3 17 7 14 12 -7 18 39 8
58 -5 10 -7 23 -4 28 8 13 52 13 60 0 10 -16 35 -12 35 6 0 8 5 12 10 9 6 -3
10 -16 10 -27 0 -43 14 -5 17 45 2 29 5 61 7 72 3 11 5 28 5 38 1 10 5 16 10
12 5 -3 12 -1 15 4 9 14 77 1 100 -18z m-2347 -63 c-3 -8 -6 -5 -6 6 -1 11 2
17 5 13 3 -3 4 -12 1 -19z m781 -28 c7 -12 17 -18 23 -14 9 5 38 -5 67 -22 8
-5 19 -74 12 -74 -5 0 -6 -10 -3 -22 5 -21 4 -21 -8 -7 -20 23 -79 33 -79 14
0 -20 -39 -19 -46 0 -4 8 -12 15 -20 15 -8 0 -14 9 -14 20 0 11 -6 20 -12 21
-10 0 -10 2 0 6 6 2 12 11 12 19 0 8 5 14 11 14 7 0 9 10 7 25 -4 20 -1 25 16
25 12 0 27 -9 34 -20z m-759 1 c22 -14 4 -33 -20 -21 -11 6 -17 15 -14 21 8
11 16 11 34 0z m1343 -68 c23 -20 26 -52 3 -33 -12 10 -15 10 -15 -1 0 -23 21
-46 27 -31 2 6 9 10 14 6 12 -7 12 -54 -1 -54 -5 0 -10 5 -10 10 0 6 -6 10
-14 10 -15 0 -39 56 -31 70 3 5 1 11 -5 15 -5 3 -10 10 -10 16 0 14 22 11 42
-8z m-42 -89 c0 -8 -4 -12 -10 -9 -5 3 -10 13 -10 21 0 8 5 12 10 9 6 -3 10
-13 10 -21z m-477 4 c-5 -7 -10 -24 -11 -37 -1 -31 -8 -36 -27 -21 -13 11 -14
15 -2 29 8 9 12 22 10 29 -3 7 4 12 17 12 16 0 20 -3 13 -12z m1131 -158 c31
-43 34 -51 20 -57 -23 -9 -11 -85 20 -126 25 -33 47 -142 23 -118 -17 17 -37
13 -38 -6 -1 -16 -2 -17 -6 -1 -2 9 -10 15 -17 12 -8 -3 -18 6 -24 25 -11 31
-45 56 -66 48 -7 -3 -26 7 -42 22 -16 15 -39 28 -51 29 -46 3 -50 5 -45 24 2
10 0 18 -5 18 -13 0 -3 81 14 107 9 13 22 23 30 23 8 0 21 6 29 14 9 9 26 12
52 9 27 -4 42 -1 51 11 7 9 15 16 16 16 2 0 19 -23 39 -50z m256 -45 c0 -8 -4
-15 -10 -15 -5 0 -10 7 -10 15 0 8 5 15 10 15 6 0 10 -7 10 -15z m-1040 -11
c0 -12 6 -15 24 -10 14 3 28 1 31 -4 4 -6 11 -8 16 -5 5 4 9 1 9 -4 0 -6 5
-11 11 -11 5 0 7 5 3 12 -4 7 -3 8 4 4 7 -4 12 -14 12 -22 0 -8 11 -37 25 -64
18 -36 25 -65 25 -109 0 -59 0 -59 -32 -64 -18 -3 -44 -4 -58 -3 -14 2 -30 4
-37 5 -7 0 -24 22 -39 49 -15 26 -32 53 -38 61 -10 14 -12 20 -20 84 -4 30 -1
40 15 50 10 6 19 20 19 29 0 10 7 18 15 18 8 0 15 -7 15 -16z m-270 -40 c28
-31 30 -38 18 -50 -18 -19 -49 -8 -41 14 4 14 3 14 -5 3 -14 -19 -42 -6 -42
19 0 20 18 49 31 50 3 0 21 -16 39 -36z m1135 -94 c3 -5 -1 -10 -9 -10 -9 0
-16 5 -16 10 0 6 4 10 9 10 6 0 13 -4 16 -10z m50 -93 c8 -46 -11 -50 -20 -4
-4 17 -9 41 -12 52 -5 18 -4 18 11 5 8 -8 18 -32 21 -53z m-975 -87 c0 -5 -5
-10 -11 -10 -5 0 -7 5 -4 10 3 6 8 10 11 10 2 0 4 -4 4 -10z m1028 -299 c9 -5
36 -15 58 -21 38 -11 44 -17 68 -76 28 -69 33 -123 14 -142 -7 -7 -9 -12 -5
-12 4 0 -4 -12 -18 -27 -16 -18 -25 -39 -25 -61 0 -19 -4 -31 -10 -27 -5 3 -7
12 -3 20 4 11 1 13 -11 9 -10 -4 -16 -18 -16 -38 0 -40 -12 -58 -33 -50 -13 5
-17 0 -17 -17 0 -17 -3 -20 -9 -11 -4 8 -19 12 -32 10 -13 -1 -22 -6 -19 -10
3 -4 -4 -14 -15 -22 -17 -13 -18 -18 -8 -35 9 -14 9 -22 2 -27 -6 -3 -8 -12
-5 -19 2 -7 -2 -21 -9 -32 -12 -15 -17 -16 -35 -5 -11 7 -25 10 -30 7 -21 -13
-9 13 13 28 21 15 20 16 -25 12 -40 -3 -50 0 -59 16 -6 11 -8 26 -6 34 3 7 0
18 -6 24 -19 19 11 61 45 61 23 0 28 4 28 24 0 17 7 26 26 30 21 6 33 0 62
-29 33 -33 60 -43 75 -28 4 3 -2 12 -13 20 -11 8 -20 21 -20 29 0 8 -4 14 -10
14 -14 0 -39 64 -56 144 -15 67 -14 69 7 89 13 12 18 22 11 25 -13 4 -5 28 17
53 9 10 22 25 29 33 15 19 17 19 40 7z m-496 -161 c53 -41 62 -128 19 -188
-18 -27 -27 -30 -93 -35 -52 -4 -79 -1 -94 8 -24 16 -34 11 -34 -17 0 -24 -22
-23 -38 2 -7 11 -19 20 -26 20 -8 0 -16 5 -18 11 -2 5 -11 11 -21 13 -9 1 -24
11 -32 22 -14 18 -16 18 -28 2 -17 -21 -63 -33 -71 -19 -10 16 -26 14 -26 -3
0 -19 -44 -46 -72 -45 -13 0 -17 3 -10 6 14 6 16 33 2 33 -5 0 -10 7 -10 15 0
8 5 15 10 15 6 0 10 7 10 15 0 19 117 138 129 131 5 -4 11 -2 13 4 4 11 79 -9
90 -24 4 -6 24 -11 45 -13 21 -2 53 -6 71 -9 25 -5 32 -3 32 10 0 9 3 15 8 14
4 -1 20 10 36 25 34 32 73 35 108 7z m576 -283 c-21 -45 -38 -61 -38 -34 0 18
24 67 33 67 4 0 7 8 7 17 0 11 3 14 10 7 6 -6 2 -26 -12 -57z m302 -179 c0 -5
-5 -8 -10 -8 -9 0 -30 41 -30 58 1 9 39 -41 40 -50z m40 27 c0 -8 -7 -15 -15
-15 -16 0 -20 12 -8 23 11 12 23 8 23 -8z m-910 -61 c0 -31 -2 -35 -15 -24 -8
7 -15 23 -15 36 0 15 6 24 15 24 11 0 15 -11 15 -36z m70 16 c0 -5 -4 -10 -10
-10 -5 0 -10 5 -10 10 0 6 5 10 10 10 6 0 10 -4 10 -10z m825 0 c3 -5 1 -10
-4 -10 -6 0 -11 5 -11 10 0 6 2 10 4 10 3 0 8 -4 11 -10z m-860 -18 c-3 -3
-11 0 -18 7 -9 10 -8 11 6 5 10 -3 15 -9 12 -12z m909 -124 c11 -26 11 -38 -7
-87 -24 -69 -22 -67 -43 -46 -18 18 -36 111 -28 142 3 12 16 19 35 20 25 2 32
-3 43 -29z m-987 -146 c20 -16 27 -32 24 -58 -1 -15 -61 -12 -61 4 0 6 -4 12
-9 12 -5 0 -7 -10 -4 -22 4 -23 4 -23 -10 1 l-14 24 -7 -37 c-9 -45 -21 -46
-30 -4 -5 23 -2 34 9 41 8 4 15 14 15 22 0 16 27 34 50 34 8 1 25 -7 37 -17z
m533 -102 c-5 -17 -6 -39 -3 -48 6 -15 5 -15 -10 -3 -20 16 -23 91 -5 109 18
18 29 -19 18 -58z m380 -11 c0 -5 -4 -9 -10 -9 -5 0 -10 7 -10 16 0 8 5 12 10
9 6 -3 10 -10 10 -16z m-40 -224 c0 -8 -4 -15 -10 -15 -5 0 -10 7 -10 15 0 8
5 15 10 15 6 0 10 -7 10 -15z m50 5 c0 -5 -4 -10 -10 -10 -5 0 -10 5 -10 10 0
6 5 10 10 10 6 0 10 -4 10 -10z m-20 -118 c0 -5 -3 -12 -7 -16 -5 -4 -8 -45
-8 -91 0 -77 -7 -107 -21 -93 -3 3 -8 31 -11 61 -6 62 13 147 34 147 7 0 13
-4 13 -8z m-90 -158 c10 -49 10 -70 0 -98 -6 -21 -17 -35 -23 -33 -17 5 -30
149 -17 183 14 36 24 22 40 -52z m145 16 c3 -5 -1 -10 -10 -10 -9 0 -13 5 -10
10 3 6 8 10 10 10 2 0 7 -4 10 -10z m-1598 -272 c-3 -8 -6 -5 -6 6 -1 11 2 17
5 13 3 -3 4 -12 1 -19z m1513 -29 c0 -5 -4 -9 -10 -9 -5 0 -10 7 -10 16 0 8 5
12 10 9 6 -3 10 -10 10 -16z m-50 -19 c0 -5 -4 -10 -10 -10 -5 0 -10 5 -10 10
0 6 5 10 10 10 6 0 10 -4 10 -10z m160 -186 c0 -8 -4 -12 -10 -9 -5 3 -10 10
-10 16 0 5 5 9 10 9 6 0 10 -7 10 -16z m4 -79 c-4 -8 -8 -15 -10 -15 -2 0 -4
7 -4 15 0 8 4 15 10 15 5 0 7 -7 4 -15z m-182 -91 c4 -3 9 9 13 26 4 17 9 29
12 26 3 -3 15 1 25 9 25 17 48 9 48 -15 0 -27 20 -35 27 -11 7 29 20 26 28 -6
3 -16 13 -39 22 -52 12 -18 17 -21 24 -10 12 20 19 7 25 -51 6 -56 -3 -166
-13 -156 -3 3 -17 -6 -30 -20 -14 -16 -28 -22 -36 -17 -6 4 -23 8 -36 8 -26 0
-24 -3 -55 110 -32 114 -39 135 -48 135 -4 0 -8 -13 -8 -30 0 -16 -4 -30 -9
-30 -10 0 -31 76 -26 94 2 6 7 25 11 41 l7 30 7 -38 c4 -20 9 -40 12 -43z
m-108 -74 l-7 -70 -18 35 c-20 38 -20 78 2 112 22 35 31 4 23 -77z m164 -219
c-3 -13 16 -67 34 -97 10 -17 16 -39 12 -48 -3 -9 -1 -16 5 -16 13 0 15 -106
2 -114 -11 -7 -20 -56 -14 -73 3 -7 9 -10 14 -7 5 3 9 0 9 -5 0 -6 -4 -11 -9
-11 -12 0 -22 -45 -15 -65 4 -10 13 -13 25 -10 21 7 21 5 24 -63 0 -24 7 -47
15 -52 19 -11 26 -156 10 -204 -9 -30 -15 -35 -25 -26 -8 7 -19 9 -25 5 -5 -3
-10 -1 -10 4 0 6 -4 11 -10 11 -5 0 -10 -7 -10 -15 0 -25 -17 -17 -30 15 -13
31 -16 74 -12 173 2 50 5 57 22 57 17 0 20 7 20 44 0 25 -4 48 -10 51 -5 3
-10 26 -10 50 0 24 -4 47 -10 50 -11 7 -12 0 -10 -73 1 -52 1 -53 -20 -42 -12
7 -35 10 -51 8 -24 -4 -27 -2 -18 14 7 14 6 18 -6 18 -8 0 -15 -9 -15 -20 0
-15 -7 -20 -24 -20 -22 0 -26 7 -36 57 -21 98 6 170 64 175 12 0 27 2 35 2 15
1 36 46 21 46 -15 0 -9 150 7 166 12 12 12 14 -4 14 -13 0 -15 2 -5 9 14 9 62
3 60 -8z m184 -9 c-7 -5 -14 -23 -15 -40 -3 -45 -27 -51 -27 -7 0 19 5 35 11
35 5 0 7 5 4 10 -3 6 4 10 17 10 16 0 19 -3 10 -8z m-1404 -124 c7 -1 11 -7 8
-13 -2 -7 11 -28 30 -46 19 -18 34 -37 34 -42 0 -5 9 -21 19 -36 12 -17 18
-36 14 -49 -3 -13 -1 -22 6 -22 6 0 11 -11 11 -26 0 -19 8 -28 35 -40 19 -8
35 -18 35 -23 0 -5 18 -16 40 -25 23 -9 42 -22 44 -29 2 -6 9 -31 15 -54 7
-24 21 -52 32 -62 12 -11 18 -24 15 -29 -3 -5 17 -35 44 -66 64 -73 65 -86 1
-19 -26 28 -70 63 -97 78 -27 16 -80 48 -117 73 -37 25 -70 42 -73 39 -3 -2
-20 8 -37 25 -29 26 -60 48 -167 117 -29 18 -30 21 -10 16 21 -6 20 -4 -8 14
-43 27 -50 51 -39 121 8 49 13 59 33 64 13 4 28 16 35 27 9 18 17 20 47 14 21
-3 43 -7 50 -7z m-525 -96 c76 -32 90 -42 60 -42 -12 0 -24 6 -26 13 -4 9 -8
8 -16 -3 -9 -13 -11 -13 -11 2 0 10 -14 21 -35 28 -19 6 -37 16 -40 21 -8 13
-7 12 68 -19z m1867 -21 c0 -6 -4 -13 -10 -16 -5 -3 -10 1 -10 9 0 9 5 16 10
16 6 0 10 -4 10 -9z m-1721 -47 c14 -12 -19 -1 -35 12 -18 14 -18 14 6 3 14
-6 27 -13 29 -15z m1721 -34 c0 -5 -4 -10 -10 -10 -5 0 -10 5 -10 10 0 6 5 10
10 10 6 0 10 -4 10 -10z m-643 -148 c31 -29 46 -53 63 -106 30 -96 29 -120 -7
-164 -24 -29 -37 -36 -59 -34 -60 5 -74 13 -106 60 -17 26 -38 53 -45 60 -7 7
-14 23 -14 35 -1 12 -3 38 -5 57 -4 52 19 96 62 118 46 24 60 20 111 -26z
m488 8 c3 -5 -1 -10 -10 -10 -9 0 -13 5 -10 10 3 6 8 10 10 10 2 0 7 -4 10
-10z m-667 -265 c24 -4 52 -16 62 -27 21 -23 18 -40 -5 -31 -8 3 -15 0 -15 -6
0 -6 6 -11 13 -11 19 0 40 -65 32 -100 -4 -17 -10 -30 -14 -30 -4 0 -28 37
-52 82 -24 46 -57 98 -74 117 -22 25 -25 31 -10 24 11 -6 39 -14 63 -18z m780
-84 c3 -8 -1 -12 -9 -9 -7 2 -15 10 -17 17 -3 8 1 12 9 9 7 -2 15 -10 17 -17z
m82 -222 c0 -15 -4 -31 -10 -34 -5 -3 -10 -15 -10 -26 0 -10 -5 -19 -11 -19
-7 0 -8 7 -4 18 15 34 17 62 6 62 -12 0 -15 42 -4 54 12 11 33 -25 33 -55z
m-67 9 c23 -54 27 -105 11 -118 -19 -17 -44 -69 -44 -95 0 -12 9 -30 19 -39
18 -17 19 -16 26 14 6 29 8 30 20 13 13 -17 14 -16 24 10 6 16 11 40 12 55 0
24 1 25 9 7 4 -11 6 -37 3 -57 -3 -23 -1 -38 5 -38 5 0 13 -11 16 -25 4 -14
11 -25 16 -25 6 0 10 -12 9 -27 0 -16 -3 -22 -6 -15 -9 23 -21 12 -26 -25 -2
-21 -13 -66 -23 -99 -18 -59 -20 -61 -44 -52 -24 9 -37 8 -73 -7 -13 -6 -20 1
-32 29 -20 48 -22 318 -2 310 20 -7 37 39 28 73 -4 15 -4 43 1 61 5 19 7 40 5
47 -6 13 10 35 25 35 4 0 14 -15 21 -32z m-77 -165 c-10 -10 -19 5 -10 18 6
11 8 11 12 0 2 -7 1 -15 -2 -18z"/>
<path d="M4365 5427 c-4 -10 -5 -21 -1 -24 10 -10 18 4 13 24 -4 17 -4 17 -12
0z"/>
<path d="M5536 4001 c-3 -5 1 -11 9 -15 8 -3 15 -1 15 4 0 13 -18 22 -24 11z"/>
<path d="M4760 4300 c0 -5 5 -10 10 -10 6 0 10 5 10 10 0 6 -4 10 -10 10 -5 0
-10 -4 -10 -10z"/>
<path d="M5992 2305 c0 -16 2 -22 5 -12 2 9 2 23 0 30 -3 6 -5 -1 -5 -18z"/>
<path d="M5986 1852 c-4 -13 -5 -26 -2 -29 10 -11 18 4 14 29 l-4 23 -8 -23z"/>
<path d="M5991 1784 c0 -11 3 -14 6 -6 3 7 2 16 -1 19 -3 4 -6 -2 -5 -13z"/>
<path d="M2330 6196 c0 -9 5 -16 10 -16 6 0 10 4 10 9 0 6 -4 13 -10 16 -5 3
-10 -1 -10 -9z"/>
<path d="M3127 6135 c-15 -14 -34 -25 -42 -25 -21 0 -5 -40 21 -52 35 -16 64
13 64 64 0 44 -5 46 -43 13z"/>
<path d="M1390 5320 c-8 -5 -11 -12 -8 -16 10 -9 38 3 38 16 0 12 -10 13 -30
0z"/>
<path d="M1332 5289 c2 -6 8 -10 13 -10 5 0 11 4 13 10 2 6 -4 11 -13 11 -9 0
-15 -5 -13 -11z"/>
<path d="M4190 5067 c0 -10 -7 -20 -15 -23 -22 -9 -18 -37 6 -53 18 -11 23
-11 30 1 13 20 10 51 -6 72 -13 18 -15 18 -15 3z"/>
<path d="M3130 5030 c-8 -5 -25 -10 -38 -10 -23 0 -92 -39 -92 -53 0 -4 8 -11
17 -14 26 -10 53 -36 47 -45 -3 -4 24 -8 60 -8 l66 0 -6 58 c-9 87 -16 97 -54
72z"/>
<path d="M4206 4754 c-14 -26 -26 -49 -26 -53 0 -3 -12 -19 -26 -34 -22 -25
-28 -28 -53 -19 -29 10 -29 10 -20 -21 5 -17 6 -40 3 -49 -3 -12 0 -18 9 -18
8 0 31 -16 52 -36 35 -33 36 -35 11 -28 -16 4 -26 2 -26 -4 0 -13 20 -26 40
-27 10 0 15 -9 14 -27 -1 -18 4 -28 12 -28 16 0 19 -17 3 -22 -7 -2 -5 -13 5
-32 11 -22 12 -34 4 -52 -6 -13 -15 -21 -19 -18 -5 3 -9 -4 -9 -15 0 -11 -4
-23 -10 -26 -5 -3 -10 -17 -10 -30 0 -13 5 -27 10 -30 6 -3 10 -16 10 -28 0
-12 7 -30 15 -41 17 -22 39 -97 54 -186 15 -85 31 -131 41 -125 4 3 6 14 3 25
-3 11 -1 26 5 33 6 6 13 28 17 49 5 25 13 38 28 43 l22 6 -22 11 c-13 6 -25
26 -33 57 -6 25 -15 62 -21 82 -5 20 -9 76 -8 123 1 77 -2 90 -21 111 -22 24
-20 45 5 45 9 0 16 17 20 48 3 26 10 54 15 63 5 9 5 33 -1 55 -4 22 -9 57 -9
80 0 22 -3 44 -7 47 -3 4 -7 26 -9 49 -6 84 -29 91 -68 22z"/>
<path d="M4452 4679 c1 -12 8 -24 15 -26 7 -3 9 3 6 17 -8 29 -25 37 -21 9z"/>
<path d="M2355 4640 c4 -6 11 -8 16 -5 14 9 11 15 -7 15 -8 0 -12 -5 -9 -10z"/>
<path d="M4085 4530 c3 -5 10 -10 16 -10 5 0 9 5 9 10 0 6 -7 10 -16 10 -8 0
-12 -4 -9 -10z"/>
<path d="M6162 3970 c0 -14 2 -19 5 -12 2 6 2 18 0 25 -3 6 -5 1 -5 -13z"/>
<path d="M4119 3721 c-25 -9 -58 -24 -73 -34 -15 -10 -43 -21 -62 -24 l-34 -6
6 -86 c4 -47 10 -90 15 -96 5 -5 9 -17 9 -27 0 -10 6 -21 14 -24 8 -3 16 -18
19 -33 3 -16 20 -43 38 -60 27 -27 36 -31 68 -25 59 10 65 13 93 54 l28 40
-45 0 c-25 0 -45 5 -45 10 0 6 11 10 24 10 14 0 28 5 31 10 3 6 15 10 26 10
10 0 19 5 19 10 0 19 28 10 33 -11 3 -12 10 -18 17 -14 6 4 9 13 6 20 -2 7 2
16 11 19 13 5 13 9 2 23 -8 9 -13 18 -11 20 1 1 1 18 1 36 -1 19 -3 25 -6 13
-5 -17 -7 -16 -27 9 -18 22 -33 29 -74 33 -29 2 -52 8 -52 13 0 11 39 47 73
67 16 10 25 22 22 30 -3 8 -5 18 -5 23 0 14 -70 8 -121 -10z m147 -182 c4 -8
-1 -9 -17 -3 -13 4 -42 11 -64 14 -37 6 -36 11 5 23 17 5 65 -17 76 -34z"/>
<path d="M3709 3143 c-8 -2 -26 -21 -40 -43 -13 -22 -27 -40 -31 -40 -5 0 -8
-16 -8 -35 0 -46 -38 -120 -87 -168 -67 -67 -106 -97 -125 -97 -20 0 -24 -16
-5 -23 10 -4 10 -7 0 -18 -18 -18 -16 -52 5 -80 33 -46 44 -72 48 -118 7 -63
11 -72 29 -64 10 3 15 13 12 24 -3 11 -1 19 4 19 5 0 9 -9 9 -20 0 -14 9 -21
36 -26 24 -4 38 -13 41 -25 3 -11 14 -19 27 -19 17 0 18 2 6 10 -12 8 -11 10
8 10 12 0 25 7 28 15 4 8 10 12 16 9 5 -3 15 2 22 12 11 14 21 16 62 9 103
-18 175 -12 237 19 45 23 57 34 57 53 0 15 -6 23 -17 24 -47 2 -79 11 -90 26
-14 18 -8 35 10 32 12 -3 68 21 77 32 8 10 84 19 96 11 13 -9 44 -70 44 -88 0
-7 5 -16 11 -20 9 -5 10 6 5 43 -7 54 -3 61 72 146 28 33 32 43 26 70 -7 36
-31 82 -56 111 -10 11 -18 23 -18 27 0 4 -10 18 -22 32 -19 21 -26 23 -46 14
-19 -9 -26 -8 -33 6 -5 9 -16 14 -24 11 -8 -4 -15 -2 -15 4 0 6 -8 8 -17 6
-10 -3 -30 6 -45 21 -30 27 -66 33 -74 11 -3 -8 -20 -17 -39 -20 -18 -4 -35
-10 -37 -15 -2 -4 -28 -11 -59 -14 l-57 -7 -5 33 c-3 17 -1 36 4 42 5 5 9 22
9 37 0 28 -10 32 -51 21z m411 -179 c0 -8 4 -22 9 -32 34 -61 61 -127 61 -147
0 -37 -23 -49 -64 -34 -28 10 -46 10 -83 1 -33 -8 -63 -8 -93 -2 -25 5 -48 9
-52 10 -14 0 -8 38 8 54 18 19 45 21 42 4 -2 -8 11 -14 37 -16 l40 -3 -2 69
-2 69 39 19 c22 10 40 23 40 27 0 5 5 5 10 2 6 -3 10 -13 10 -21z m-310 -185
c3 -4 19 -9 35 -11 l30 -4 -30 -13 c-27 -12 -51 -17 -174 -38 -24 -4 -32 -2
-27 6 4 6 17 11 28 11 18 0 20 4 15 35 l-6 36 62 -7 c34 -4 64 -10 67 -15z
m-230 -4 c11 -13 9 -20 -10 -40 -30 -32 -79 -35 -77 -5 1 20 17 29 17 10 0 -5
9 -1 20 10 11 11 20 25 20 30 0 15 16 12 30 -5z"/>
<path d="M4342 2760 c0 -14 2 -19 5 -12 2 6 2 18 0 25 -3 6 -5 1 -5 -13z"/>
<path d="M4319 2692 c-3 -20 -2 -29 4 -23 5 5 7 19 5 32 -3 20 -5 19 -9 -9z"/>
<path d="M4345 1840 c4 -6 11 -8 16 -5 14 9 11 15 -7 15 -8 0 -12 -5 -9 -10z"/>
<path d="M0 1237 c0 -43 4 -66 10 -62 13 8 13 95 0 115 -7 10 -10 -5 -10 -53z"/>
<path d="M0 986 l0 -146 29 0 c40 0 44 11 25 60 -12 29 -15 58 -11 98 6 60 -9
123 -30 130 -10 3 -13 -30 -13 -142z"/>
<path d="M5701 454 c0 -11 3 -14 6 -6 3 7 2 16 -1 19 -3 4 -6 -2 -5 -13z"/>
<path d="M5661 421 c-8 -5 -11 -16 -8 -25 10 -25 27 -19 27 9 0 28 0 28 -19
16z"/>
</g>
</svg>
